# xmcd
#
# Track frame offsets:
#	150
#	22103
#	42353
#	60688
#	75283
#	93220
#	111480
#	128170
#	143223
#	159105
#
# Disc length: 2353 seconds
#
# Revision: 0
# Processed by: cddbd v1.5.2PL0 Copyright (c) Steve Scherf et al.
# Submitted via: EasyCDDAExtractor 15.3.0.1
#
DISCID=7a092f0a
DTITLE=Emmanuel - Toda La Vida Y Otros Grandes Exitos De Emmanuel
DYEAR=1986
DGENRE=Latin
TTITLE0=Toda La Vida (Tutta La Vita)
TTITLE1=Hay Que Arrimar El Alma
TTITLE2=El Año Que Vendra... Querido Amigo
TTITLE3=Mucho Señora
TTITLE4=Esa Triste Guitarra
TTITLE5=Estoy Loco
TTITLE6=Maria Del Angel
TTITLE7=Pertenezco A Ti
TTITLE8=Sola
TTITLE9=Detenedla Ya
EXTD=
EXTT0=
EXTT1=
EXTT2=
EXTT3=
EXTT4=
EXTT5=
EXTT6=
EXTT7=
EXTT8=
EXTT9=
PLAYORDER=
